<svg width="16" height="16" viewBox="0 0 16 16" fill="none" xmlns="http://www.w3.org/2000/svg">
<path d="M9.33331 6V3.33334C9.33331 2.8029 9.1226 2.2942 8.74753 1.91912C8.37245 1.54405 7.86375 1.33334 7.33331 1.33334L4.66665 7.33334V14.6667H12.1866C12.5082 14.6703 12.8202 14.5576 13.0653 14.3493C13.3103 14.1411 13.4718 13.8513 13.52 13.5333L14.44 7.53334C14.469 7.34224 14.4561 7.14712 14.4022 6.9615C14.3483 6.77588 14.2547 6.6042 14.1279 6.45835C14.0011 6.31249 13.844 6.19596 13.6677 6.11681C13.4914 6.03767 13.2999 5.99781 13.1066 6H9.33331ZM4.66665 14.6667H2.66665C2.31302 14.6667 1.97389 14.5262 1.72384 14.2761C1.47379 14.0261 1.33331 13.687 1.33331 13.3333V8.66667C1.33331 8.31305 1.47379 7.97391 1.72384 7.72386C1.97389 7.47381 2.31302 7.33334 2.66665 7.33334H4.66665" fill="#0275B1"/>
</svg>
